<svg width="230" height="52" viewBox="0 0 230 52" fill="none" xmlns="http://www.w3.org/2000/svg">
<path d="M87.9415 25.1847L88.9559 22.7226C90.0408 23.4834 91.1081 23.8638 92.1577 23.8638C93.771 23.8638 94.5776 23.3002 94.5776 22.1731C94.5776 21.6447 94.3874 21.141 94.007 20.662C93.6266 20.1829 92.8411 19.6475 91.6505 19.0558C90.467 18.457 89.6674 17.9674 89.2518 17.587C88.8432 17.1995 88.5262 16.7416 88.3007 16.2132C88.0824 15.6849 87.9732 15.1002 87.9732 14.4591C87.9732 13.2615 88.4099 12.2682 89.2835 11.4792C90.1641 10.6902 91.2912 10.2957 92.665 10.2957C94.4543 10.2957 95.7682 10.6303 96.6065 11.2995L95.7717 13.6666C94.8066 12.9762 93.7886 12.631 92.7178 12.631C92.0838 12.631 91.5906 12.8001 91.2384 13.1382C90.8932 13.4693 90.7206 13.9026 90.7206 14.438C90.7206 15.3256 91.7033 16.2485 93.6688 17.2065C94.7044 17.7138 95.4511 18.1822 95.9091 18.612C96.367 19.0347 96.7157 19.5313 96.9552 20.1019C97.1947 20.6655 97.3145 21.296 97.3145 21.9934C97.3145 23.2474 96.8178 24.2795 95.8245 25.0896C94.8383 25.8997 93.5138 26.3048 91.8513 26.3048C90.4071 26.3048 89.1038 25.9314 87.9415 25.1847Z" fill="black"/>
<path d="M107.489 19.6898V26.0406H104.742V19.6898L99.5217 10.5598H102.438L106.105 17.1643L109.782 10.5598H112.688L107.489 19.6898Z" fill="black"/>
<path d="M114.885 25.1847L115.899 22.7226C116.984 23.4834 118.052 23.8638 119.101 23.8638C120.715 23.8638 121.521 23.3002 121.521 22.1731C121.521 21.6447 121.331 21.141 120.951 20.662C120.57 20.1829 119.785 19.6475 118.594 19.0558C117.411 18.457 116.611 17.9674 116.195 17.587C115.787 17.1995 115.47 16.7416 115.244 16.2132C115.026 15.6849 114.917 15.1002 114.917 14.4591C114.917 13.2615 115.353 12.2682 116.227 11.4792C117.108 10.6902 118.235 10.2957 119.609 10.2957C121.398 10.2957 122.712 10.6303 123.55 11.2995L122.715 13.6666C121.75 12.9762 120.732 12.631 119.661 12.631C119.027 12.631 118.534 12.8001 118.182 13.1382C117.837 13.4693 117.664 13.9026 117.664 14.438C117.664 15.3256 118.647 16.2485 120.612 17.2065C121.648 17.7138 122.395 18.1822 122.853 18.612C123.311 19.0347 123.659 19.5313 123.899 20.1019C124.138 20.6655 124.258 21.296 124.258 21.9934C124.258 23.2474 123.761 24.2795 122.768 25.0896C121.782 25.8997 120.457 26.3048 118.795 26.3048C117.351 26.3048 116.047 25.9314 114.885 25.1847Z" fill="black"/>
<path d="M134.295 13.0008V26.0406H131.548V13.0008H126.624V10.5598H139.442V13.0008H134.295Z" fill="black"/>
<path d="M145.295 13.0008V16.6254H150.409V18.9607H145.295V23.5996H152.311V26.0406H142.547V10.5598H152.427V13.0008H145.295Z" fill="black"/>
<path d="M170.601 26.0512H167.939L166.332 17.7032L163.215 26.252H162.232L159.115 17.7032L157.445 26.0512H154.793L157.91 10.5598H159.369L162.718 20.9896L165.994 10.5598H167.442L170.601 26.0512Z" fill="black"/>
<path d="M176.338 13.0008V16.6254H181.453V18.9607H176.338V23.5996H183.355V26.0406H173.591V10.5598H183.471V13.0008H176.338Z" fill="black"/>
<path d="M190.645 26.0406H187.21V10.5704C189.401 10.4929 190.779 10.4542 191.342 10.4542C193.596 10.4542 195.382 11.1164 196.7 12.4408C198.024 13.7582 198.686 15.5088 198.686 17.6926C198.686 23.258 196.006 26.0406 190.645 26.0406ZM189.958 12.9691V23.5362C190.402 23.5785 190.881 23.5996 191.395 23.5996C192.783 23.5996 193.868 23.0959 194.65 22.0885C195.439 21.0811 195.833 19.6722 195.833 17.8617C195.833 14.5507 194.294 12.8952 191.215 12.8952C190.919 12.8952 190.5 12.9198 189.958 12.9691Z" fill="black"/>
<path d="M210.784 26.0406L207.128 20.4718L203.747 26.0406H200.883L205.522 18.0202L201.253 10.5493L204.064 10.5598L207.202 15.7906L210.658 10.5598H213.532L208.629 18.0625L213.775 26.0406H210.784Z" fill="black"/>
<path d="M90.7339 42.0972V38.4266C90.7339 37.9903 90.6266 37.6467 90.4121 37.3958C90.1976 37.1449 89.8958 37.0195 89.5068 37.0195C89.2559 37.0195 89.0032 37.094 88.7487 37.2431C88.4978 37.3886 88.3051 37.5594 88.1705 37.7558V42.0972H87.1343V33.8616H88.1705V36.8995C88.3087 36.685 88.5305 36.5068 88.8359 36.365C89.145 36.2196 89.4631 36.1469 89.7904 36.1469C90.4085 36.1469 90.8921 36.3505 91.2411 36.7577C91.5938 37.1649 91.7702 37.7212 91.7702 38.4266V42.0972H90.7339Z" fill="black"/>
<path d="M99.0558 39.2775H94.8453C94.8453 39.961 95.0326 40.4864 95.4071 40.8537C95.738 41.1736 96.1634 41.3336 96.6833 41.3336C97.276 41.3336 97.7705 41.1609 98.1668 40.8155L98.6031 41.5627C98.4431 41.7227 98.1977 41.8608 97.8668 41.9772C97.4523 42.1299 96.9906 42.2062 96.4815 42.2062C95.7471 42.2062 95.1235 41.9572 94.6108 41.459C94.04 40.91 93.7545 40.1719 93.7545 39.2447C93.7545 38.2812 94.0472 37.5085 94.6326 36.9268C95.1562 36.4068 95.7761 36.1469 96.4924 36.1469C97.3251 36.1469 97.9777 36.3814 98.4504 36.8504C98.9085 37.3013 99.1376 37.8994 99.1376 38.6448C99.1376 38.8739 99.1103 39.0847 99.0558 39.2775ZM96.5415 37.0195C96.0797 37.0195 95.6925 37.1686 95.3798 37.4667C95.0817 37.7503 94.9126 38.103 94.8726 38.5248H98.1068C98.1068 38.1067 97.9759 37.7576 97.7141 37.4776C97.4269 37.1722 97.036 37.0195 96.5415 37.0195Z" fill="black"/>
<path d="M104.427 41.4263C104.013 41.9463 103.378 42.2062 102.524 42.2062C102.066 42.2062 101.667 42.0408 101.329 41.7099C100.995 41.3754 100.827 40.9609 100.827 40.4664C100.827 39.8738 101.086 39.3738 101.602 38.9666C102.122 38.5557 102.784 38.3503 103.587 38.3503C103.805 38.3503 104.053 38.3975 104.329 38.4921C104.329 37.5467 103.907 37.074 103.064 37.074C102.416 37.074 101.918 37.2486 101.569 37.5976L101.133 36.7304C101.329 36.5705 101.6 36.4341 101.946 36.3214C102.295 36.205 102.627 36.1469 102.944 36.1469C103.791 36.1469 104.405 36.3396 104.787 36.725C105.172 37.1104 105.365 37.7231 105.365 38.563V40.6573C105.365 41.17 105.518 41.5118 105.823 41.6827V42.2008C105.402 42.2008 105.085 42.1408 104.874 42.0208C104.667 41.9008 104.518 41.7027 104.427 41.4263ZM104.329 39.2284C104.002 39.1556 103.773 39.1193 103.642 39.1193C103.118 39.1193 102.691 39.2538 102.36 39.5229C102.029 39.7919 101.864 40.1101 101.864 40.4773C101.864 41.0845 102.222 41.3881 102.938 41.3881C103.462 41.3881 103.925 41.1391 104.329 40.6409V39.2284Z" fill="black"/>
<path d="M107.971 40.4446V33.8616H109.008V40.2701C109.008 40.5828 109.097 40.83 109.275 41.0118C109.457 41.19 109.693 41.2791 109.984 41.2791V42.2062C108.642 42.2062 107.971 41.619 107.971 40.4446Z" fill="black"/>
<path d="M112.448 37.074H111.772V36.2559H112.448V35.0343L113.484 34.6361V36.2559H115.088V37.074H113.484V39.9756C113.484 40.4664 113.566 40.8155 113.73 41.0227C113.897 41.23 114.164 41.3336 114.532 41.3336C114.797 41.3336 115.072 41.2663 115.355 41.1318L115.508 42.0426C115.079 42.1517 114.608 42.2062 114.095 42.2062C113.634 42.2062 113.243 42.0353 112.923 41.6936C112.606 41.3481 112.448 40.9136 112.448 40.3901V37.074Z" fill="black"/>
<path d="M120.999 42.0972V38.4266C120.999 37.9903 120.892 37.6467 120.677 37.3958C120.463 37.1449 120.161 37.0195 119.772 37.0195C119.521 37.0195 119.268 37.094 119.014 37.2431C118.763 37.3886 118.57 37.5594 118.436 37.7558V42.0972H117.4V33.8616H118.436V36.8995C118.574 36.685 118.796 36.5068 119.101 36.365C119.41 36.2196 119.728 36.1469 120.056 36.1469C120.674 36.1469 121.157 36.3505 121.506 36.7577C121.859 37.1649 122.035 37.7212 122.035 38.4266V42.0972H120.999Z" fill="black"/>
<path d="M128.808 36.7304L128.296 37.4613C128.19 37.3558 128.003 37.2558 127.734 37.1613C127.469 37.0668 127.207 37.0195 126.949 37.0195C126.385 37.0195 125.938 37.2177 125.607 37.614C125.276 38.0067 125.111 38.5466 125.111 39.2338C125.111 39.9174 125.28 40.4392 125.618 40.7991C125.956 41.1554 126.425 41.3336 127.025 41.3336C127.49 41.3336 127.959 41.1536 128.432 40.7937L128.841 41.6663C128.285 42.0263 127.596 42.2062 126.774 42.2062C125.978 42.2062 125.32 41.939 124.8 41.4045C124.28 40.87 124.02 40.1465 124.02 39.2338C124.02 38.303 124.289 37.5558 124.827 36.9922C125.369 36.4287 126.109 36.1469 127.047 36.1469C127.349 36.1469 127.676 36.2105 128.028 36.3378C128.381 36.465 128.641 36.5959 128.808 36.7304Z" fill="black"/>
<path d="M134.125 41.4263C133.711 41.9463 133.076 42.2062 132.222 42.2062C131.764 42.2062 131.365 42.0408 131.027 41.7099C130.693 41.3754 130.526 40.9609 130.526 40.4664C130.526 39.8738 130.784 39.3738 131.3 38.9666C131.82 38.5557 132.482 38.3503 133.285 38.3503C133.503 38.3503 133.751 38.3975 134.027 38.4921C134.027 37.5467 133.605 37.074 132.762 37.074C132.114 37.074 131.616 37.2486 131.267 37.5976L130.831 36.7304C131.027 36.5705 131.298 36.4341 131.644 36.3214C131.993 36.205 132.325 36.1469 132.642 36.1469C133.489 36.1469 134.103 36.3396 134.485 36.725C134.871 37.1104 135.063 37.7231 135.063 38.563V40.6573C135.063 41.17 135.216 41.5118 135.521 41.6827V42.2008C135.1 42.2008 134.783 42.1408 134.572 42.0208C134.365 41.9008 134.216 41.7027 134.125 41.4263ZM134.027 39.2284C133.7 39.1556 133.471 39.1193 133.34 39.1193C132.816 39.1193 132.389 39.2538 132.058 39.5229C131.727 39.7919 131.562 40.1101 131.562 40.4773C131.562 41.0845 131.92 41.3881 132.636 41.3881C133.16 41.3881 133.623 41.1391 134.027 40.6409V39.2284Z" fill="black"/>
<path d="M140.762 37.254C140.536 37.0977 140.309 37.0195 140.08 37.0195C139.713 37.0195 139.391 37.1886 139.115 37.5267C138.842 37.8649 138.706 38.2721 138.706 38.7484V42.0972H137.669V36.2559H138.706V37.1886C139.084 36.4941 139.646 36.1469 140.391 36.1469C140.576 36.1469 140.844 36.1796 141.193 36.245L140.762 37.254Z" fill="black"/>
<path d="M147.742 39.2775H143.532C143.532 39.961 143.719 40.4864 144.093 40.8537C144.424 41.1736 144.85 41.3336 145.369 41.3336C145.962 41.3336 146.457 41.1609 146.853 40.8155L147.289 41.5627C147.129 41.7227 146.884 41.8608 146.553 41.9772C146.139 42.1299 145.677 42.2062 145.168 42.2062C144.433 42.2062 143.81 41.9572 143.297 41.459C142.726 40.91 142.441 40.1719 142.441 39.2447C142.441 38.2812 142.733 37.5085 143.319 36.9268C143.842 36.4068 144.462 36.1469 145.179 36.1469C146.011 36.1469 146.664 36.3814 147.137 36.8504C147.595 37.3013 147.824 37.8994 147.824 38.6448C147.824 38.8739 147.797 39.0847 147.742 39.2775ZM145.228 37.0195C144.766 37.0195 144.379 37.1686 144.066 37.4667C143.768 37.7503 143.599 38.103 143.559 38.5248H146.793C146.793 38.1067 146.662 37.7576 146.4 37.4776C146.113 37.1722 145.722 37.0195 145.228 37.0195Z" fill="black"/>
<path d="M154.449 37.074H153.772V36.2559H154.449V35.0343L155.485 34.6361V36.2559H157.088V37.074H155.485V39.9756C155.485 40.4664 155.567 40.8155 155.73 41.0227C155.898 41.23 156.165 41.3336 156.532 41.3336C156.797 41.3336 157.072 41.2663 157.356 41.1318L157.508 42.0426C157.079 42.1517 156.608 42.2062 156.096 42.2062C155.634 42.2062 155.243 42.0353 154.923 41.6936C154.607 41.3481 154.449 40.9136 154.449 40.3901V37.074Z" fill="black"/>
<path d="M164.319 39.2775H160.109C160.109 39.961 160.296 40.4864 160.671 40.8537C161.002 41.1736 161.427 41.3336 161.947 41.3336C162.54 41.3336 163.034 41.1609 163.43 40.8155L163.867 41.5627C163.707 41.7227 163.461 41.8608 163.131 41.9772C162.716 42.1299 162.254 42.2062 161.745 42.2062C161.011 42.2062 160.387 41.9572 159.874 41.459C159.304 40.91 159.018 40.1719 159.018 39.2447C159.018 38.2812 159.311 37.5085 159.896 36.9268C160.42 36.4068 161.04 36.1469 161.756 36.1469C162.589 36.1469 163.241 36.3814 163.714 36.8504C164.172 37.3013 164.401 37.8994 164.401 38.6448C164.401 38.8739 164.374 39.0847 164.319 39.2775ZM161.805 37.0195C161.343 37.0195 160.956 37.1686 160.643 37.4667C160.345 37.7503 160.176 38.103 160.136 38.5248H163.37C163.37 38.1067 163.24 37.7576 162.978 37.4776C162.691 37.1722 162.3 37.0195 161.805 37.0195Z" fill="black"/>
<path d="M170.798 36.7304L170.285 37.4613C170.18 37.3558 169.993 37.2558 169.723 37.1613C169.458 37.0668 169.196 37.0195 168.938 37.0195C168.375 37.0195 167.927 37.2177 167.596 37.614C167.266 38.0067 167.1 38.5466 167.1 39.2338C167.1 39.9174 167.269 40.4392 167.607 40.7991C167.946 41.1554 168.415 41.3336 169.014 41.3336C169.48 41.3336 169.949 41.1536 170.422 40.7937L170.831 41.6663C170.274 42.0263 169.585 42.2062 168.764 42.2062C167.967 42.2062 167.309 41.939 166.789 41.4045C166.269 40.87 166.009 40.1465 166.009 39.2338C166.009 38.303 166.278 37.5558 166.817 36.9922C167.358 36.4287 168.098 36.1469 169.036 36.1469C169.338 36.1469 169.665 36.2105 170.018 36.3378C170.371 36.465 170.631 36.5959 170.798 36.7304Z" fill="black"/>
<path d="M176.415 42.0972V38.4266C176.415 37.9903 176.307 37.6467 176.093 37.3958C175.878 37.1449 175.577 37.0195 175.188 37.0195C174.937 37.0195 174.684 37.094 174.429 37.2431C174.179 37.3886 173.986 37.5594 173.851 37.7558V42.0972H172.815V33.8616H173.851V36.8995C173.989 36.685 174.211 36.5068 174.517 36.365C174.826 36.2196 175.144 36.1469 175.471 36.1469C176.089 36.1469 176.573 36.3505 176.922 36.7577C177.275 37.1649 177.451 37.7212 177.451 38.4266V42.0972H176.415Z" fill="black"/>
<path d="M183.411 42.0972V38.6993C183.411 38.0776 183.317 37.6431 183.128 37.3958C182.942 37.1449 182.63 37.0195 182.19 37.0195C181.953 37.0195 181.706 37.0904 181.448 37.2322C181.19 37.374 180.991 37.5485 180.853 37.7558V42.0972H179.817V36.2559H180.526L180.853 37.0086C181.195 36.4341 181.753 36.1469 182.528 36.1469C183.808 36.1469 184.448 36.925 184.448 38.4812V42.0972H183.411Z" fill="black"/>
<path d="M186.437 39.1629C186.437 38.2612 186.679 37.534 187.163 36.9813C187.65 36.425 188.29 36.1469 189.083 36.1469C189.919 36.1469 190.568 36.4141 191.03 36.9486C191.491 37.4795 191.722 38.2176 191.722 39.1629C191.722 40.1046 191.486 40.8482 191.013 41.3936C190.541 41.9354 189.897 42.2062 189.083 42.2062C188.25 42.2062 187.601 41.9317 187.135 41.3827C186.67 40.8337 186.437 40.0937 186.437 39.1629ZM187.528 39.1629C187.528 40.6282 188.046 41.3609 189.083 41.3609C189.566 41.3609 189.944 41.1645 190.217 40.7718C190.493 40.3792 190.631 39.8428 190.631 39.1629C190.631 37.7158 190.115 36.9922 189.083 36.9922C188.61 36.9922 188.232 37.1849 187.948 37.5704C187.668 37.9558 187.528 38.4866 187.528 39.1629Z" fill="black"/>
<path d="M193.794 40.4446V33.8616H194.83V40.2701C194.83 40.5828 194.919 40.83 195.097 41.0118C195.279 41.19 195.516 41.2791 195.806 41.2791V42.2062C194.465 42.2062 193.794 41.619 193.794 40.4446Z" fill="black"/>
<path d="M197.518 39.1629C197.518 38.2612 197.76 37.534 198.243 36.9813C198.731 36.425 199.371 36.1469 200.163 36.1469C201 36.1469 201.649 36.4141 202.11 36.9486C202.572 37.4795 202.803 38.2176 202.803 39.1629C202.803 40.1046 202.567 40.8482 202.094 41.3936C201.621 41.9354 200.978 42.2062 200.163 42.2062C199.331 42.2062 198.682 41.9317 198.216 41.3827C197.751 40.8337 197.518 40.0937 197.518 39.1629ZM198.609 39.1629C198.609 40.6282 199.127 41.3609 200.163 41.3609C200.647 41.3609 201.025 41.1645 201.298 40.7718C201.574 40.3792 201.712 39.8428 201.712 39.1629C201.712 37.7158 201.196 36.9922 200.163 36.9922C199.691 36.9922 199.312 37.1849 199.029 37.5704C198.749 37.9558 198.609 38.4866 198.609 39.1629Z" fill="black"/>
<path d="M204.58 43.6952L205.142 42.8662C205.745 43.2698 206.302 43.4716 206.811 43.4716C207.28 43.4716 207.649 43.3898 207.918 43.2261C208.191 43.0662 208.327 42.8662 208.327 42.6262C208.327 42.1535 207.985 41.9172 207.302 41.9172C207.185 41.9172 206.974 41.9463 206.669 42.0044C206.364 42.0626 206.125 42.0917 205.955 42.0917C205.126 42.0917 204.711 41.779 204.711 41.1536C204.711 40.9609 204.807 40.7864 205 40.63C205.196 40.4737 205.438 40.361 205.725 40.2919C204.904 39.9065 204.493 39.2375 204.493 38.2848C204.493 37.674 204.706 37.1649 205.131 36.7577C205.556 36.3505 206.082 36.1469 206.707 36.1469C207.282 36.1469 207.731 36.265 208.054 36.5014L208.572 35.8796L209.249 36.5177L208.627 36.9868C208.892 37.3322 209.025 37.7831 209.025 38.3394C209.025 38.9284 208.842 39.4229 208.474 39.8229C208.107 40.2228 207.625 40.4519 207.029 40.5101L206.173 40.5973C206.071 40.6082 205.935 40.6482 205.764 40.7173C205.593 40.7828 205.507 40.87 205.507 40.9791C205.507 41.1282 205.685 41.2027 206.042 41.2027C206.198 41.2027 206.442 41.1754 206.773 41.1209C207.104 41.0627 207.349 41.0336 207.509 41.0336C208.083 41.0336 208.531 41.1718 208.851 41.4481C209.174 41.7208 209.336 42.1008 209.336 42.588C209.336 43.1261 209.094 43.5606 208.611 43.8915C208.131 44.2224 207.522 44.3878 206.784 44.3878C206.405 44.3878 206.007 44.3206 205.589 44.186C205.171 44.0515 204.835 43.8879 204.58 43.6952ZM206.778 36.9813C206.418 36.9813 206.124 37.1086 205.895 37.3631C205.669 37.6176 205.556 37.9267 205.556 38.2903C205.556 38.6975 205.665 39.0357 205.884 39.3047C206.105 39.5701 206.404 39.7029 206.778 39.7029C207.145 39.7029 207.433 39.5738 207.64 39.3156C207.847 39.0538 207.951 38.7121 207.951 38.2903C207.951 37.9267 207.838 37.6176 207.613 37.3631C207.391 37.1086 207.113 36.9813 206.778 36.9813Z" fill="black"/>
<path d="M213.524 43.0898C213.389 43.4607 213.106 43.7697 212.673 44.017C212.244 44.2642 211.764 44.3878 211.233 44.3878V43.4607C211.666 43.4607 212.037 43.3588 212.346 43.1552C212.655 42.9553 212.809 42.7098 212.809 42.4189C212.809 42.099 212.753 41.7845 212.64 41.4754C212.528 41.1627 212.382 40.7773 212.204 40.3192L210.622 36.2559H211.68L213.398 40.7718L214.942 36.2559H216L213.524 43.0898Z" fill="black"/>
<path d="M215.548 29.8802V30.5783H87.0961V29.8802H215.548Z" fill="black"/>
<path d="M33.208 8.58789L41.6787 16.1662L41.8655 15.7087C41.9495 15.5034 42.0329 15.3042 42.1157 15.1109C42.151 15.0283 42.1869 14.9472 42.2221 14.8668C42.2678 14.7624 42.3129 14.6595 42.3584 14.5586C42.4018 14.4622 42.4454 14.3676 42.4887 14.2743C42.5248 14.1966 42.561 14.1201 42.597 14.0446C43.8037 11.5102 44.9695 10.1941 46.6439 9.47689C47.6626 9.04059 48.8935 8.81526 50.4815 8.70174C52.0703 8.58818 53.9892 8.58789 56.3793 8.58789H76.2754V11.7294H58.2316L58.147 11.9557L52.8287 26.1374L53.0005 26.297L70.846 42.7953H65.591L51.6711 29.9457L50.1147 35.0022C49.0759 37.7702 47.9751 39.6868 46.0658 40.9321C44.1453 42.1845 41.3499 42.7953 36.8322 42.7953H14.4927V39.3047H24.2662C30.0262 39.3047 32.7765 38.5461 34.4849 36.2682C35.3216 35.1526 35.8875 33.6975 36.4675 31.8757C37.0555 30.0286 37.65 27.8331 38.5597 25.1039C39.1842 23.2304 39.7377 21.5686 40.2471 20.0931L40.3234 19.8729L27.6279 8.58789H33.208Z" fill="black"/>
<path d="M56.6683 26.1374L56.8401 26.297L74.6856 42.7953H71.874L53.6468 25.9431L58.7156 12.4275H61.8094L56.6683 26.1374Z" fill="black"/>
<path d="M54.4329 33.4451L53.9543 35.0022C52.9155 37.7702 51.8147 39.6868 49.9054 40.9321C48.5019 41.8474 46.6308 42.4177 43.9619 42.6596C44.9118 42.3632 45.7307 41.9845 46.4476 41.517C48.5502 40.1457 49.7174 38.0507 50.7719 35.2388L50.776 35.2286L50.7787 35.219L52.012 31.2103L54.4329 33.4451Z" fill="black"/>
<path d="M42.2241 13.219C41.9515 13.7555 41.682 14.3438 41.4094 14.9888L34.2552 8.58789H37.0476L42.2241 13.219Z" fill="black"/>
<path d="M80.115 11.7294H76.9735V8.58789H80.115V11.7294Z" fill="black"/>
</svg>
